<?xml version="1.0" encoding="UTF-8"?>
<!DOCTYPE svg PUBLIC "-//W3C//DTD SVG 1.1//EN" "http://www.w3.org/Graphics/SVG/1.1/DTD/svg11.dtd">
<!-- Creator: CorelDRAW 2019 (64-Bit) -->
<svg xmlns="http://www.w3.org/2000/svg" xml:space="preserve" width="500px" height="500px" version="1.1" style="shape-rendering:geometricPrecision; text-rendering:geometricPrecision; image-rendering:optimizeQuality; fill-rule:evenodd; clip-rule:evenodd"
viewBox="0 0 391.27 391.27"
 xmlns:xlink="http://www.w3.org/1999/xlink">
 <defs>
  <style type="text/css">
   <![CDATA[
    .fil1 {fill:white;fill-rule:nonzero}
    .fil0 {fill:url(#id0)}
   ]]>
  </style>
  <linearGradient id="id0" gradientUnits="userSpaceOnUse" x1="195.64" y1="391.27" x2="195.64" y2="0">
   <stop offset="0" style="stop-opacity:1; stop-color:#FF4400"/>
   <stop offset="1" style="stop-opacity:1; stop-color:#F5238F"/>
  </linearGradient>
 </defs>
 <g id="Слой_x0020_1">
  <metadata id="CorelCorpID_0Corel-Layer"/>
  <g id="Instagram">
   <circle id="_1._x0020_Instagram" class="fil0" cx="195.64" cy="195.64" r="195.64"/>
   <path id="_2._x0020_Instagram" class="fil1" d="M195.64 85.05c-30.04,0 -33.8,0.13 -45.6,0.67 -11.77,0.53 -19.81,2.4 -26.84,5.14 -7.27,2.82 -13.44,6.6 -19.59,12.75 -6.15,6.15 -9.93,12.32 -12.75,19.59 -2.74,7.03 -4.61,15.07 -5.14,26.84 -0.54,11.8 -0.67,15.56 -0.67,45.6 0,30.03 0.13,33.8 0.67,45.59 0.53,11.77 2.4,19.81 5.14,26.84 2.82,7.28 6.6,13.44 12.75,19.59 6.15,6.15 12.32,9.93 19.59,12.76 7.03,2.73 15.07,4.6 26.84,5.14 11.8,0.53 15.56,0.66 45.6,0.66 30.03,0 33.8,-0.13 45.59,-0.66 11.77,-0.54 19.81,-2.41 26.84,-5.14 7.28,-2.83 13.44,-6.61 19.59,-12.76 6.15,-6.15 9.93,-12.31 12.76,-19.59 2.73,-7.03 4.6,-15.07 5.14,-26.84 0.53,-11.79 0.66,-15.56 0.66,-45.59 0,-30.04 -0.13,-33.8 -0.66,-45.6 -0.54,-11.77 -2.41,-19.81 -5.14,-26.84 -2.83,-7.27 -6.61,-13.44 -12.76,-19.59 -6.15,-6.15 -12.31,-9.93 -19.59,-12.75 -7.03,-2.74 -15.07,-4.61 -26.84,-5.14 -11.79,-0.54 -15.56,-0.67 -45.59,-0.67l0 0zm72.3 51.56c0,7.32 -5.94,13.27 -13.27,13.27 -7.33,0 -13.27,-5.95 -13.27,-13.27 0,-7.33 5.94,-13.27 13.27,-13.27 7.33,0 13.27,5.94 13.27,13.27zm-72.3 95.89c-20.36,0 -36.87,-16.51 -36.87,-36.86 0,-20.36 16.51,-36.87 36.87,-36.87 20.35,0 36.86,16.51 36.86,36.87 0,20.35 -16.51,36.86 -36.86,36.86zm0 -93.65c-31.37,0 -56.79,25.42 -56.79,56.79 0,31.36 25.42,56.78 56.79,56.78 31.36,0 56.78,-25.42 56.78,-56.78 0,-31.37 -25.42,-56.79 -56.78,-56.79zm0 -33.87c29.52,0 33.02,0.11 44.68,0.64 10.78,0.49 16.64,2.29 20.54,3.81 5.16,2 8.84,4.4 12.71,8.27 3.87,3.87 6.27,7.55 8.27,12.72 1.52,3.89 3.32,9.75 3.81,20.53 0.53,11.66 0.65,15.16 0.65,44.69 0,29.52 -0.12,33.02 -0.65,44.68 -0.49,10.78 -2.29,16.64 -3.81,20.54 -2,5.16 -4.4,8.84 -8.27,12.71 -3.87,3.87 -7.55,6.27 -12.71,8.27 -3.9,1.52 -9.76,3.32 -20.54,3.81 -11.66,0.53 -15.15,0.65 -44.68,0.65 -29.53,0 -33.03,-0.12 -44.69,-0.65 -10.78,-0.49 -16.64,-2.29 -20.53,-3.81 -5.17,-2 -8.85,-4.4 -12.72,-8.27 -3.87,-3.87 -6.27,-7.55 -8.27,-12.71 -1.52,-3.9 -3.32,-9.76 -3.81,-20.54 -0.53,-11.66 -0.64,-15.16 -0.64,-44.68 0,-29.53 0.11,-33.03 0.64,-44.69 0.49,-10.78 2.29,-16.64 3.81,-20.53 2,-5.17 4.4,-8.85 8.27,-12.72 3.87,-3.87 7.55,-6.27 12.72,-8.27 3.89,-1.52 9.75,-3.32 20.53,-3.81 11.66,-0.53 15.16,-0.64 44.69,-0.64z"/>
  </g>
 </g>
</svg>
