<svg width="347" height="70" viewBox="0 0 347 70" fill="none" xmlns="http://www.w3.org/2000/svg">
<path d="M68.461 13.8934H87.1977C91.2647 13.8934 94.5793 15.2369 97.1351 17.93C99.6848 20.6293 100.966 24.0315 100.966 28.1427C100.966 31.974 99.5604 35.2269 96.7434 37.9014C93.9325 40.5758 90.5869 41.9131 86.7189 41.9131H77.7952V55.8016H68.461V13.8934ZM49.1521 25.661C50.4456 23.4406 49.6807 20.5858 47.4606 19.2983C45.2344 18.0109 42.3862 18.7697 41.099 20.9963C38.6302 25.2568 37.3367 30.077 37.3367 35.003C37.3367 39.929 38.6302 44.743 41.099 49.0035C42.3862 51.2301 45.2344 51.9889 47.4606 50.7015C49.6807 49.414 50.4456 46.5654 49.1521 44.3387C47.5104 41.4901 46.6709 38.287 46.6709 35.003C46.6709 31.7128 47.5104 28.5097 49.1521 25.661ZM32.9837 16.3253C34.2771 14.1049 33.5185 11.2501 31.2922 9.9626C29.0659 8.67512 26.2178 9.43392 24.9305 11.6606C20.82 18.7697 18.6684 26.7868 18.6684 35.003C18.6684 43.213 20.8138 51.2363 24.9305 58.3392C26.2178 60.5659 29.0659 61.3246 31.2922 60.0372C33.5185 58.7497 34.2771 55.9011 32.9837 53.6745C29.694 47.9835 28.0025 41.5772 28.0025 35.003C28.0025 28.4288 29.694 22.0225 32.9837 16.3253ZM16.8152 6.98959C18.1087 4.76295 17.3438 1.91434 15.1237 0.626867C12.8975 -0.660605 10.0493 0.0981952 8.76206 2.32484C3.0036 12.2763 0 23.5028 0 35.003C0 46.497 3.0036 57.7235 8.76206 67.6812C10.0493 69.9016 12.8975 70.6604 15.1237 69.3729C17.3438 68.0854 18.1087 65.2368 16.8152 63.0102C11.8776 54.4706 9.33418 44.8612 9.33418 35.003C9.33418 25.1386 11.8776 15.5292 16.8152 6.98959ZM77.7952 34.126H85.699C87.4527 34.126 88.8706 33.5476 89.9464 32.3907C91.0284 31.2339 91.5632 29.7785 91.5632 28.0183C91.5632 26.227 91.0409 24.7779 89.9775 23.677C88.9203 22.5823 87.4962 22.035 85.699 22.035H77.7952V34.126ZM118.322 24.2492C122.837 24.2492 126.493 25.5553 129.31 28.1676C132.121 30.7861 133.533 34.3064 133.533 38.7348V55.8016H124.373V51.7899C122.178 54.9433 118.764 56.5231 114.137 56.5231C111.059 56.5231 108.416 55.6523 106.202 53.917C103.988 52.1817 102.881 49.8369 102.881 46.8826C102.881 43.6857 104.106 41.26 106.563 39.6056C109.013 37.9511 111.917 37.1239 115.269 37.1239C118.9 37.1239 121.935 38.0382 124.373 39.873V38.3803C124.373 36.1847 123.664 34.437 122.246 33.1371C120.828 31.8434 119.006 31.1966 116.767 31.1966C113.179 31.1966 110.182 32.1109 107.788 33.9457L104.915 28.3231C106.55 27.0045 108.609 25.9969 111.084 25.2941C113.559 24.5975 115.971 24.2492 118.322 24.2492ZM117.308 50.291C120.3 50.291 122.656 49.3145 124.373 47.3615V43.8847C122.457 42.6905 120.281 42.0934 117.843 42.0934C116.332 42.0934 114.983 42.4293 113.807 43.1072C112.626 43.7852 112.041 44.8239 112.041 46.2233C112.041 47.5419 112.57 48.5494 113.627 49.246C114.684 49.9426 115.909 50.291 117.308 50.291ZM151.666 24.2492C156.138 24.2492 160.086 25.1697 163.519 27.0045L161.305 32.9318C158.196 31.4516 155.099 30.7176 152.027 30.7176C150.989 30.7176 150.062 30.9167 149.241 31.3147C148.426 31.7128 148.016 32.3907 148.016 33.3486C148.016 34.549 149.073 35.4819 151.188 36.1661L155.74 37.6588C161.243 39.5745 163.998 42.6719 163.998 46.9385C163.998 50.1728 162.742 52.5798 160.229 54.1534C157.717 55.7332 154.745 56.5231 151.312 56.5231C148.955 56.5231 146.511 56.2494 143.974 55.7145C141.443 55.1734 139.378 54.3462 137.78 53.2266L140.535 47.2371C143.806 49.0346 147.239 49.9364 150.833 49.9364C151.909 49.9364 152.935 49.725 153.911 49.3082C154.894 48.8853 155.379 48.2198 155.379 47.2993C155.379 46.0243 154.241 45.0042 151.965 44.2454L147.357 42.7527C144.845 41.8322 142.886 40.6629 141.493 39.2448C140.093 37.8329 139.397 35.9422 139.397 33.5911C139.397 30.4751 140.616 28.1427 143.047 26.5816C145.485 25.0266 148.358 24.2492 151.666 24.2492ZM180.819 24.2492C185.291 24.2492 189.246 25.1697 192.672 27.0045L190.458 32.9318C187.349 31.4516 184.252 30.7176 181.18 30.7176C180.142 30.7176 179.215 30.9167 178.394 31.3147C177.579 31.7128 177.169 32.3907 177.169 33.3486C177.169 34.549 178.226 35.4819 180.34 36.1661L184.893 37.6588C190.396 39.5745 193.151 42.6719 193.151 46.9385C193.151 50.1728 191.895 52.5798 189.382 54.1534C186.87 55.7332 183.898 56.5231 180.465 56.5231C178.108 56.5231 175.664 56.2494 173.127 55.7145C170.596 55.1734 168.531 54.3462 166.933 53.2266L169.688 47.2371C172.959 49.0346 176.392 49.9364 179.986 49.9364C181.062 49.9364 182.088 49.725 183.064 49.3082C184.047 48.8853 184.532 48.2198 184.532 47.2993C184.532 46.0243 183.394 45.0042 181.118 44.2454L176.51 42.7527C173.997 41.8322 172.045 40.6629 170.646 39.2448C169.246 37.8329 168.55 35.9422 168.55 33.5911C168.55 30.4751 169.769 28.1427 172.2 26.5816C174.638 25.0266 177.511 24.2492 180.819 24.2492ZM244.094 13.8934L247.987 55.8016H238.59L236.433 30.2947L226.259 55.3227H219.673L209.493 30.2387L207.342 55.8016H197.945L201.832 13.8934H211.533L222.963 41.5523L234.399 13.8934H244.094ZM284.024 39.3941C284.024 40.7562 283.943 41.6705 283.788 42.1494H261.158C261.475 44.5875 262.458 46.4037 264.093 47.5978C265.729 48.7982 267.799 49.3953 270.318 49.3953C273.67 49.3953 276.263 48.7796 278.098 47.5419L281.393 53.1644C278.116 55.4035 274.13 56.5231 269.416 56.5231C264.429 56.5231 260.318 55.0739 257.085 52.1817C253.857 49.2834 252.24 45.365 252.24 40.4141C252.24 35.5877 253.752 31.6817 256.786 28.7087C259.821 25.7357 263.751 24.2492 268.583 24.2492C273.172 24.2492 276.891 25.6237 279.745 28.379C282.6 31.1344 284.024 34.804 284.024 39.3941ZM268.459 31.0162C266.668 31.0162 265.15 31.5822 263.913 32.7204C262.675 33.8586 261.836 35.3264 261.394 37.1239H275.106C274.907 35.2082 274.229 33.7093 273.073 32.6333C271.916 31.5511 270.374 31.0162 268.459 31.0162ZM308.028 24.2492C311.659 24.2492 314.433 25.5926 316.348 28.292C318.264 30.9851 319.221 34.2069 319.221 37.9573V55.8016H310.068V38.4985C310.068 36.5828 309.614 34.9532 308.718 33.616C307.823 32.2788 306.454 31.6133 304.62 31.6133C302.624 31.6133 301.094 32.4032 300.037 33.9768C298.98 35.5565 298.451 37.3976 298.451 39.5185V55.8016H289.291V24.9644H298.451V29.8158C299.247 28.0618 300.534 26.6935 302.313 25.717C304.091 24.7405 305.994 24.2492 308.028 24.2492ZM344.904 48.0768L347 54.0041C344.724 55.6834 341.77 56.5231 338.138 56.5231C335.11 56.5231 332.61 55.6585 330.657 53.9481C328.705 52.2315 327.722 49.8742 327.722 46.8826V31.7315H323.114V24.9644H328.444L330.06 16.7047H336.702V24.9644H345.445V31.7315H336.702V44.6062C336.702 46.0056 337.044 47.1127 337.722 47.9275C338.4 48.7485 339.419 49.1528 340.775 49.1528C342.292 49.1528 343.667 48.7982 344.904 48.0768Z" fill="url(#paint0_linear)"/>
<defs>
<linearGradient id="paint0_linear" x1="163.905" y1="-12.5651" x2="183.102" y2="82.5636" gradientUnits="userSpaceOnUse">
<stop stop-color="#00AEFF"/>
<stop offset="1" stop-color="#0BCED1"/>
</linearGradient>
</defs>
</svg>
